Coordinates
version=1
nRows=27
nColumns=19
inDegrees=yes

Units are S.I. units (second, meters, Newtons, ...)
If the header above contains a line with 'inDegrees', this indicates whether rotational values are in degrees (yes) or radians (no).

endheader
time	pelvis_tilt	pelvis_list	pelvis_rotation	pelvis_tx	pelvis_ty	pelvis_tz	hip_flexion_r	hip_adduction_r	hip_rotation_r	knee_angle_r	knee_angle_r_beta	ankle_angle_r	hip_flexion_l	hip_adduction_l	hip_rotation_l	knee_angle_l	knee_angle_l_beta	ankle_angle_l
     17.09333333	      6.40470716	      5.90212048	      3.78630159	      2.18994384	      1.12199614	      1.02814962	    -24.09853501	    -10.15870457	    -25.99699480	     40.27304475	      0.70289723	    -16.37339879	     12.54416793	     10.27247220	     -2.04640688	     14.18015726	      0.24749043	      6.33380307
     17.10000000	      6.59580055	      6.49435947	      3.90585453	      2.19042248	      1.11789473	      1.02735022	    -23.65036371	    -11.31739387	    -26.12677719	     43.12387298	      0.75265357	    -15.67084823	     12.54897204	     10.68248558	     -3.55924788	     15.82314200	      0.27616593	      5.96043610
     17.10666667	      6.95765810	      7.09227440	      4.09383842	      2.19065175	      1.11372851	      1.02661295	    -23.33426954	    -12.37220452	    -26.13334980	     45.96938724	      0.80231716	    -14.95950786	     12.38619913	     11.06819811	     -4.87433294	     17.65883074	      0.30820474	      5.65259029
     17.11333333	      7.58854688	      7.68171756	      4.40841688	      2.19044376	      1.10965629	      1.02589237	    -23.27318789	    -13.26346786	    -26.10999221	     48.77415375	      0.85126957	    -14.27950892	     11.96720512	     11.42826953	     -5.85468008	     19.68869294	      0.34363252	      5.49099682
     17.12000000	      7.43794258	      8.06115727	      4.55858108	      2.18983107	      1.10465631	      1.02535875	    -21.96477614	    -14.05470877	    -25.35932987	     51.92648274	      0.90628809	    -13.54759924	     12.52897769	     11.55994829	     -6.89037439	     21.96771663	      0.38340898	      5.49292110
     17.12666667	      7.61616528	      8.48073959	      4.80778111	      2.18877748	      1.09989171	      1.02493186	    -20.98175937	    -14.72958725	    -24.66042482	     54.99777876	      0.95989232	    -12.86338939	     12.72342528	     11.74317257	     -7.54098714	     24.29252173	      0.42398449	      5.77864135
     17.13333333	      7.75562867	      8.85934677	      5.07753219	      2.18727610	      1.09504074	      1.02462871	    -19.80992436	    -15.29767520	    -23.81867777	     58.10792568	      1.01417462	    -12.20075502	     12.98911891	     11.90687487	     -7.94068441	     26.68511976	      0.46574320	      6.35395722
     17.14000000	      7.84799541	      9.20768167	      5.36116593	      2.18536900	      1.09013824	      1.02443835	    -18.44878745	    -15.77348259	    -22.85511345	     61.23597305	      1.06876935	    -11.54845172	     13.31688940	     12.07606133	     -8.09970375	     29.09803613	      0.50785654	      7.23840637
     17.14666667	      8.47970712	      9.75199456	      5.66706858	      2.18316692	      1.08586965	      1.02442079	    -17.72821199	    -16.34098015	    -22.12239885	     64.19766147	      1.12046056	    -10.90838756	     12.93537396	     12.45813927	     -7.98932716	     31.31305474	      0.54651590	      8.37814816
     17.15333333	      8.10016928	      9.95203895	      5.89933593	      2.18065787	      1.08065924	      1.02448588	    -15.49355879	    -16.62052554	    -20.75002579	     67.38933865	      1.17616584	    -10.23591610	     13.77554776	     12.55684155	     -7.91161094	     33.68019946	      0.58783037	      9.71964489
     17.16000000	      8.24559778	     10.37650085	      6.12221360	      2.17800430	      1.07618569	      1.02468872	    -13.90486919	    -17.04838923	    -19.61916599	     70.37259416	      1.22823347	     -9.56876816	     13.86412503	     12.89406714	     -7.66181632	     35.74548095	      0.62387634	     11.20966196
     17.16666667	      8.37486041	     10.75604639	      6.34494462	      2.17526900	      1.07197484	      1.02499057	    -12.22981705	    -17.37979526	    -18.45766093	     73.23212819	      1.27814176	     -8.87394713	     13.87858626	     13.20716325	     -7.31534845	     37.65458396	      0.65719647	     12.78022055
     17.17333333	      9.03506802	     11.34315056	      6.51609978	      2.17250607	      1.06859811	      1.02531898	    -11.21773964	    -17.88283188	    -17.49638017	     75.85674976	      1.32395004	     -8.14222068	     13.09593533	     13.71339039	     -6.88973400	     39.20176590	      0.68419989	     14.44790458
     17.18000000	      8.79185623	     11.83074350	      6.37363933	      2.16979212	      1.06473575	      1.02601219	     -8.79859569	    -18.36717501	    -15.75829447	     78.61538706	      1.37209735	     -7.46348704	     13.24759349	     14.12533718	     -6.89261787	     40.55013592	      0.70773338	     15.79946674
     17.18666667	      8.80938191	     12.20256684	      6.37986104	      2.16713363	      1.06151537	      1.02658517	     -6.76070162	    -18.60532427	    -14.27517165	     81.06812000	      1.41490561	     -6.71091339	     12.97649089	     14.43422559	     -6.64380880	     41.72312655	      0.72820593	     17.25958586
     17.19333333	      8.89870882	     12.64880655	      6.22816242	      2.16465360	      1.05888274	      1.02728202	     -4.74383982	    -18.90950062	    -12.67471686	     83.33052830	      1.45439209	     -5.99531275	     12.44302067	     14.79398415	     -6.53357106	     42.55346385	      0.74269805	     18.51632018
     17.20000000	      8.88198157	     13.02112476	      6.02986375	      2.16233920	      1.05664352	      1.02805612	     -2.56037976	    -19.07249135	    -10.97293309	     85.39028143	      1.49034156	     -5.25723433	     11.89391534	     15.07603450	     -6.46692948	     43.14910280	      0.75309391	     19.63330786
     17.20666667	      9.25076779	     13.29704622	      6.06973098	      2.16015884	      1.05537560	      1.02852187	     -1.03567200	    -19.06576862	     -9.75725331	     87.05544568	      1.51940416	     -4.45927425	     10.73043959	     15.31994042	     -5.95774512	     43.51571388	      0.75949248	     20.82855301
     17.21333333	      8.49685730	     13.53787760	      5.52882478	      2.15810372	      1.05325569	      1.02962746	      2.27883261	    -19.02428626	     -7.42013379	     88.89145091	      1.55144850	     -3.82451295	     10.82983539	     15.44513762	     -6.43225120	     43.70800072	      0.76284852	     21.47916101
     17.22000000	      8.27454509	     13.70663086	      5.23706089	      2.15623949	      1.05230684	      1.03041510	      4.69960450	    -18.83480996	     -5.67757870	     90.26963086	      1.57550227	     -3.16557916	     10.14257790	     15.54481779	     -6.44126565	     43.65414971	      0.76190864	     22.20328629
     17.22666667	      8.32877667	     13.90610931	      4.87014115	      2.15455474	      1.05220220	      1.03126879	      6.73160778	    -18.62148690	     -4.02348105	     91.33723857	      1.59413554	     -2.48922885	      8.99557466	     15.66925600	     -6.43777003	     43.30307650	      0.75578126	     22.77602704
     17.23333333	      8.36744522	     13.79921381	      5.02680355	      2.15300180	      1.05280145	      1.03149520	      8.43155402	    -18.11669368	     -3.08728869	     92.00031897	      1.60570848	     -1.86349360	      7.73506988	     15.60331290	     -5.73260463	     42.89067593	      0.74858351	     23.24454755
     17.24000000	      7.52589275	     13.81608134	      4.46952345	      2.15164991	      1.05251480	      1.03261544	     11.58306179	    -17.62202335	     -1.07527929	     92.77565855	      1.61924071	     -1.30249566	      7.47940426	     15.54433791	     -6.19945160	     42.29351254	      0.73816105	     23.60234955
     17.24666667	      7.43165113	     13.56134360	      4.68512010	      2.15033249	      1.05390754	      1.03281392	     13.26389184	    -16.95680395	     -0.36217520	     92.93750262	      1.62206542	     -0.70449340	      6.20024166	     15.34359709	     -5.43324758	     41.58646651	      0.72582076	     23.84865733
     17.25333333	      7.11201238	     13.52342304	      4.19224198	      2.14938387	      1.05518261	      1.03375366	     15.48650406	    -16.43894072	      1.09840118	     93.04848152	      1.62400237	     -0.17102961	      5.08837483	     15.26130923	     -5.62426364	     40.50284437	      0.70690799	     24.01696834
     17.26000000	      6.67537568	     13.22897419	      4.16070070	      2.14847885	      1.05691860	      1.03421731	     17.52149313	    -15.73250210	      1.93825790	     92.81427725	      1.61991473	      0.37492404	      4.04206519	     14.99218582	     -5.25421977	     39.43256868	      0.68822816	     24.03494766
     17.26666667	      6.24815374	     12.78511342	      4.36513506	      2.14778312	      1.05914636	      1.03442764	     19.30703297	    -14.96578064	      2.36244485	     92.26026716	      1.61024543	      0.91878214	      2.91131216	     14.59215921	     -4.57585611	     38.29000741	      0.66828670	     23.97690182
